<mxfile host="app.diagrams.net" modified="2021-01-14T06:09:08.577Z" agent="5.0 (Windows NT 10.0; WOW64) AppleWebKit/537.36 (KHTML, like Gecko) Chrome/55.0.2883.87 UBrowser/6.2.4098.3 Safari/537.36" etag="yedq4fVudjGnCsolFAZc" version="13.5.8" type="github">
  <diagram id="m-Iyyw_MuOG-PPegFnNJ" name="Page-1">
    <mxGraphModel dx="1422" dy="746" grid="1" gridSize="10" guides="1" tooltips="1" connect="1" arrows="1" fold="1" page="1" pageScale="1" pageWidth="827" pageHeight="1169" math="0" shadow="0">
      <root>
        <mxCell id="0" />
        <mxCell id="1" parent="0" />
        <mxCell id="c2W8oS1Az5pJ9Wdbe-Kd-3" style="edgeStyle=orthogonalEdgeStyle;rounded=0;orthogonalLoop=1;jettySize=auto;html=1;entryX=0.75;entryY=0;entryDx=0;entryDy=0;exitX=0.5;exitY=0;exitDx=0;exitDy=0;" parent="1" source="c2W8oS1Az5pJ9Wdbe-Kd-1" target="c2W8oS1Az5pJ9Wdbe-Kd-2" edge="1">
          <mxGeometry relative="1" as="geometry" />
        </mxCell>
        <mxCell id="c2W8oS1Az5pJ9Wdbe-Kd-1" value="" style="ellipse;whiteSpace=wrap;html=1;aspect=fixed;" parent="1" vertex="1">
          <mxGeometry x="110" y="100" width="80" height="80" as="geometry" />
        </mxCell>
        <mxCell id="c2W8oS1Az5pJ9Wdbe-Kd-2" value="" style="shape=parallelogram;perimeter=parallelogramPerimeter;whiteSpace=wrap;html=1;fixedSize=1;" parent="1" vertex="1">
          <mxGeometry x="414" y="280" width="120" height="60" as="geometry" />
        </mxCell>
        <mxCell id="c2W8oS1Az5pJ9Wdbe-Kd-4" value="" style="shape=ext;double=1;whiteSpace=wrap;html=1;aspect=fixed;" parent="1" vertex="1">
          <mxGeometry x="270" y="490" width="80" height="80" as="geometry" />
        </mxCell>
        <mxCell id="c2W8oS1Az5pJ9Wdbe-Kd-5" value="Icon" style="icon;html=1;image=img/clipart/Gear_128x128.png" parent="1" vertex="1">
          <mxGeometry x="100" y="340" width="60" height="60" as="geometry" />
        </mxCell>
      </root>
    </mxGraphModel>
  </diagram>
</mxfile>
